<svg width="561" height="130" viewBox="0 0 561 130" fill="none" xmlns="http://www.w3.org/2000/svg">
<rect width="622" height="130" rx="65" transform="matrix(-1 0 0 1 561 0)" fill="#643090"/>
<circle cx="490" cy="63" r="53" fill="#FCFCFC"/>
<path d="M455.704 22.875L445.392 36.625H452.267V50.375H459.148V36.625H466.023L455.704 22.875ZM490.086 22.875L479.773 36.625H486.648V50.375H493.523V36.625H500.398L490.086 22.875ZM524.461 22.875L514.148 36.625H521.023V50.375H527.898V36.625H534.773L524.461 22.875ZM455.704 57.25C452.009 57.25 448.722 61.2031 448.722 66.3809C448.722 69.0449 449.603 71.4082 450.935 73.041L452.267 74.7168L450.14 75.0391C448.12 75.3613 446.745 76.3281 445.607 77.8535C444.468 79.3789 443.63 81.4844 443.115 83.9551C442.105 88.4453 442.083 93.9668 442.083 98.7793H447.648L449.001 119.834H461.834L463.381 98.7793H469.246C469.225 94.0312 468.988 88.5742 467.893 84.1055C467.291 81.6777 466.453 79.5508 465.314 78.0039C464.219 76.4785 462.865 75.5117 461.039 75.168L458.955 74.7812L460.33 73.1699C461.705 71.4941 462.65 69.1094 462.65 66.3809C462.65 61.5039 459.707 57.7012 456.392 57.25H455.704ZM490.086 57.25C486.391 57.25 483.103 61.2031 483.103 66.3809C483.103 69.0449 483.984 71.4082 485.316 73.041L486.648 74.7168L484.521 75.0391C482.502 75.3613 481.127 76.3281 479.988 77.8535C478.85 79.3789 478.012 81.4844 477.496 83.9551C476.486 88.4453 476.465 93.9668 476.465 98.7793H482.029L483.383 119.834H496.209L497.756 98.7793H503.621C503.6 94.0312 503.363 88.5742 502.268 84.1055C501.666 81.6777 500.828 79.5508 499.689 78.0039C498.594 76.4785 497.24 75.5117 495.414 75.168L493.33 74.7812L494.705 73.1699C496.08 71.4941 497.025 69.1094 497.025 66.3809C497.025 61.5039 494.082 57.7012 490.773 57.25H490.086ZM524.461 57.25C520.787 57.25 517.5 61.2031 517.5 66.3809C517.5 69.0449 518.381 71.4082 519.713 73.041L521.045 74.7168L518.918 75.0391C516.898 75.3613 515.502 76.3281 514.363 77.8535C513.225 79.3789 512.387 81.4844 511.871 83.9551C510.861 88.4453 510.84 93.9668 510.84 98.7793H516.404L517.779 119.834H530.584L532.152 98.7793H537.996C537.975 94.0312 537.738 88.5742 536.664 84.1055C536.062 81.6777 535.203 79.5508 534.064 78.0039C532.969 76.4785 531.615 75.5117 529.811 75.168L527.727 74.7812L529.08 73.1699C530.455 71.4941 531.4 69.1094 531.4 66.3809C531.4 61.5039 528.457 57.7012 525.148 57.25H524.461Z" fill="#643090"/>
</svg>
