<svg width="80" height="80" viewBox="0 0 80 80" fill="none" xmlns="http://www.w3.org/2000/svg">
<path d="M40 32C44.2435 32 48.3131 30.3143 51.3137 27.3137C54.3143 24.3131 56 20.2435 56 16C56 11.7565 54.3143 7.68687 51.3137 4.68629C48.3131 1.68571 44.2435 0 40 0C35.7565 0 31.6869 1.68571 28.6863 4.68629C25.6857 7.68687 24 11.7565 24 16C24 20.2435 25.6857 24.3131 28.6863 27.3137C31.6869 30.3143 35.7565 32 40 32ZM14 44C16.6522 44 19.1957 42.9464 21.0711 41.0711C22.9464 39.1957 24 36.6522 24 34C24 31.3478 22.9464 28.8043 21.0711 26.9289C19.1957 25.0536 16.6522 24 14 24C11.3478 24 8.8043 25.0536 6.92893 26.9289C5.05357 28.8043 4 31.3478 4 34C4 36.6522 5.05357 39.1957 6.92893 41.0711C8.8043 42.9464 11.3478 44 14 44ZM76 34C76 36.6522 74.9464 39.1957 73.0711 41.0711C71.1957 42.9464 68.6522 44 66 44C63.3478 44 60.8043 42.9464 58.9289 41.0711C57.0536 39.1957 56 36.6522 56 34C56 31.3478 57.0536 28.8043 58.9289 26.9289C60.8043 25.0536 63.3478 24 66 24C68.6522 24 71.1957 25.0536 73.0711 26.9289C74.9464 28.8043 76 31.3478 76 34ZM40 36C45.3043 36 50.3914 38.1071 54.1421 41.8579C57.8929 45.6086 60 50.6957 60 56V80H20V56C20 50.6957 22.1071 45.6086 25.8579 41.8579C29.6086 38.1071 34.6957 36 40 36ZM12 56C12 53.228 12.4 50.552 13.152 48.024L12.472 48.08C9.04352 48.4564 5.87465 50.0852 3.57305 52.6541C1.27145 55.2229 -0.000895036 58.5509 4.7239e-07 62V80H12V56ZM80 80V62C80.0004 58.4335 78.6397 55.0012 76.1955 52.4039C73.7513 49.8066 70.408 48.24 66.848 48.024C67.596 50.552 68 53.228 68 56V80H80Z" fill="#F46822"/>
</svg>
