<svg width="96" height="98" viewBox="0 0 96 98" fill="none" xmlns="http://www.w3.org/2000/svg">
<path d="M13.7045 0.875L3.39197 14.625H10.267V28.375H17.1484V14.625H24.0234L13.7045 0.875ZM48.0859 0.875L37.7734 14.625H44.6484V28.375H51.5234V14.625H58.3984L48.0859 0.875ZM82.4609 0.875L72.1484 14.625H79.0234V28.375H85.8984V14.625H92.7734L82.4609 0.875ZM13.7045 35.25C10.0092 35.25 6.72204 39.2031 6.72204 44.3809C6.72204 47.0449 7.6029 49.4082 8.93494 51.041L10.267 52.7168L8.14001 53.0391C6.12048 53.3613 4.74548 54.3281 3.60681 55.8535C2.46814 57.3789 1.63025 59.4844 1.11462 61.9551C0.104858 66.4453 0.083374 71.9668 0.083374 76.7793H5.64783L7.00134 97.834H19.834L21.3808 76.7793H27.2461C27.2246 72.0312 26.9883 66.5742 25.8926 62.1055C25.291 59.6777 24.4531 57.5508 23.3144 56.0039C22.2187 54.4785 20.8652 53.5117 19.039 53.168L16.9551 52.7812L18.3301 51.1699C19.7051 49.4941 20.6504 47.1094 20.6504 44.3809C20.6504 39.5039 17.707 35.7012 14.392 35.25H13.7045ZM48.0859 35.25C44.3906 35.25 41.1035 39.2031 41.1035 44.3809C41.1035 47.0449 41.9843 49.4082 43.3164 51.041L44.6484 52.7168L42.5215 53.0391C40.5019 53.3613 39.1269 54.3281 37.9883 55.8535C36.8496 57.3789 36.0117 59.4844 35.4961 61.9551C34.4863 66.4453 34.4648 71.9668 34.4648 76.7793H40.0293L41.3828 97.834H54.209L55.7558 76.7793H61.6211C61.5996 72.0312 61.3633 66.5742 60.2676 62.1055C59.666 59.6777 58.8281 57.5508 57.6894 56.0039C56.5937 54.4785 55.2402 53.5117 53.414 53.168L51.3301 52.7812L52.705 51.1699C54.08 49.4941 55.0254 47.1094 55.0254 44.3809C55.0254 39.5039 52.082 35.7012 48.7734 35.25H48.0859ZM82.4609 35.25C78.7871 35.25 75.5 39.2031 75.5 44.3809C75.5 47.0449 76.3808 49.4082 77.7129 51.041L79.0449 52.7168L76.9179 53.0391C74.8984 53.3613 73.5019 54.3281 72.3633 55.8535C71.2246 57.3789 70.3867 59.4844 69.8711 61.9551C68.8613 66.4453 68.8398 71.9668 68.8398 76.7793H74.4043L75.7793 97.834H88.584L90.1523 76.7793H95.9961C95.9746 72.0312 95.7383 66.5742 94.664 62.1055C94.0625 59.6777 93.2031 57.5508 92.0644 56.0039C90.9687 54.4785 89.6152 53.5117 87.8105 53.168L85.7265 52.7812L87.08 51.1699C88.455 49.4941 89.4004 47.1094 89.4004 44.3809C89.4004 39.5039 86.457 35.7012 83.1484 35.25H82.4609Z" fill="#643090"/>
</svg>
