<svg width="89" height="88" viewBox="0 0 89 88" fill="none" xmlns="http://www.w3.org/2000/svg">
<path d="M44.5 0.90625C35.7812 0.90625 29.9688 6.71875 29.9688 12.5312C29.9688 21.25 32.875 27.0625 35.7812 29.9688V32.875H53.2188V29.9688C56.125 27.0625 59.0312 21.25 59.0312 12.5312C59.0312 6.71875 53.2188 0.90625 44.5 0.90625ZM32.9477 12.7728L44.5 16.6182L56.0523 12.7728L48.932 30.5682L45.8805 29.3693L50.3852 18.1076L44.5 20.0693L38.6148 18.1076L43.1195 29.3693L40.068 30.5682L32.9477 12.7728ZM17.817 27.1352C13.5666 27.6801 9.71582 32.6752 9.71582 39.1053C9.71582 42.6654 10.951 45.8078 12.7492 47.9875L14.9107 50.5668L11.5867 51.1844C9.24356 51.6385 7.53613 52.8736 6.06484 54.8898C4.59355 56.9061 3.46738 59.7033 2.68633 62.9547C1.26953 68.8035 0.942578 75.9602 0.90625 82.2812H8.68047L9.08734 87.7305H28.8063L29.1695 82.2812H36.5805C36.5805 75.8875 36.5078 68.64 35.2182 62.7186C34.4916 59.4672 33.4199 56.6699 31.9305 54.6719C30.441 52.6738 28.6428 51.4387 26.009 51.0391L22.6486 50.5123L24.7738 47.8422C26.4994 45.6807 27.6619 42.5746 27.6619 39.1053C27.6619 32.2393 23.3752 27.1533 18.6889 27.1533L17.817 27.1352ZM69.3303 27.1352C65.0799 27.6801 61.2291 32.6752 61.2291 39.1053C61.2291 42.6654 62.4643 45.8078 64.2625 47.9875L66.424 50.5668L63.1 51.1844C60.7568 51.6385 59.0494 52.8736 57.5781 54.8898C56.1068 56.9061 54.9807 59.7033 54.1996 62.9547C52.7828 68.8035 52.4559 75.9602 52.4195 82.2812H60.1937L60.5934 87.7305H80.3195L80.6828 82.2812H88.0938C88.0938 75.8875 88.0211 68.64 86.7314 62.7186C86.0049 59.4672 84.9332 56.6699 83.4437 54.6719C81.9543 52.6738 80.1561 51.4387 77.5223 51.0391L74.1619 50.5123L76.2871 47.8422C78.0127 45.6807 79.1752 42.5746 79.1752 39.1053C79.1752 32.2393 74.8885 27.1533 70.2021 27.1533L69.3303 27.1352ZM35.7812 35.9629V39.2324H53.2188V35.9629H35.7812ZM38.6875 42.1387V45.4082H50.3125V42.1387H38.6875Z" fill="#DB1A5D"/>
</svg>
