<svg width="27" height="30" viewBox="0 0 27 48" fill="none" xmlns="http://www.w3.org/2000/svg">
<path d="M21.3314 20.6257L17.1189 34.114H8.94468L4.73222 20.6257C3.53102 16.7794 4.29392 12.5882 6.77317 9.41279L12.0656 2.63428C12.5564 2.00553 13.5071 2.00553 13.998 2.63428L19.2903 9.41279C21.7696 12.5882 22.5324 16.7794 21.3314 20.6257Z" stroke="#FCFCFC" stroke-width="3" stroke-linecap="round" stroke-linejoin="round"/>
<path d="M8.94458 40.2485C8.94458 44.3382 13.0317 46.383 13.0317 46.383C13.0317 46.383 17.1188 44.3382 17.1188 40.2485" stroke="#FCFCFC" stroke-width="3" stroke-linecap="round" stroke-linejoin="round"/>
<path d="M5.87936 24.9123C-1.27305 30.0244 2.81404 38.2037 2.81404 38.2037L8.94468 34.114" stroke="#FCFCFC" stroke-width="3" stroke-linecap="round" stroke-linejoin="round"/>
<path d="M21.0654 24.9123C28.2179 30.0244 24.1308 38.2037 24.1308 38.2037L18.0001 34.114" stroke="#FCFCFC" stroke-width="3" stroke-linecap="round" stroke-linejoin="round"/>
<path d="M13.0317 21.845C10.7744 21.845 8.94458 20.0141 8.94458 17.7554C8.94458 15.4967 10.7744 13.6657 13.0317 13.6657C15.289 13.6657 17.1188 15.4967 17.1188 17.7554C17.1188 20.0141 15.289 21.845 13.0317 21.845Z" stroke="#FCFCFC" stroke-width="3" stroke-linecap="round" stroke-linejoin="round"/>
</svg>
