<svg width="59" height="60" viewBox="0 0 59 60" fill="none" xmlns="http://www.w3.org/2000/svg">
<path d="M23.8899 27.9957L3.45734 48.4284C1.20042 50.6851 1.20042 54.3445 3.45734 56.6013C5.71423 58.8584 9.37341 58.8584 11.6303 56.6013L32.0628 36.169" stroke="#FCFCFC" stroke-width="3" stroke-linecap="round" stroke-linejoin="round"/>
<path d="M44.5287 37.2214L55.7354 48.4282C57.9925 50.6849 57.9925 54.3443 55.7354 56.6011C53.4787 58.8582 49.8193 58.8582 47.5625 56.6011L29.6224 38.6613" stroke="#FCFCFC" stroke-width="3" stroke-linecap="round" stroke-linejoin="round"/>
<path d="M14.3032 14.4065L8.17346 16.4498L2.0437 6.2335L6.1302 2.14697L16.3465 8.27673L14.3032 14.4065ZM14.3032 14.4065L22.4814 22.5847" stroke="#FCFCFC" stroke-width="3" stroke-linecap="round" stroke-linejoin="round"/>
<path d="M23.8898 27.9956C21.4516 21.7743 21.9283 13.6112 26.9548 8.58475C31.9813 3.55823 41.2575 2.45499 46.3657 5.51987L37.5793 14.3062L36.7627 23.2958L45.7522 22.4792L54.5386 13.6929C57.6036 18.801 56.5004 28.0774 51.4739 33.1038C46.4472 38.1303 38.2843 38.6071 32.063 36.1685" stroke="#FCFCFC" stroke-width="3" stroke-linecap="round" stroke-linejoin="round"/>
</svg>
