<svg width="37" height="36" viewBox="0 0 37 36" fill="none" xmlns="http://www.w3.org/2000/svg">
<path d="M12.9054 34.4983H23.8904M12.9054 34.4983V25.3384M12.9054 34.4983H3.0188C2.41211 34.4983 1.92029 34.0063 1.92029 33.3991V26.4376C1.92029 25.8304 2.41211 25.3384 3.0188 25.3384H12.9054M23.8904 34.4983V12.5144M23.8904 34.4983H33.777C34.3837 34.4983 34.8755 34.0063 34.8755 33.3991V2.6216C34.8755 2.01453 34.3837 1.5224 33.777 1.5224H24.9889C24.3822 1.5224 23.8904 2.01453 23.8904 2.6216V12.5144M12.9054 25.3384V13.6136C12.9054 13.0065 13.3972 12.5144 14.0039 12.5144H23.8904" stroke="#FCFCFC" stroke-width="3"/>
</svg>
