<svg width="40" height="36" viewBox="0 0 40 36" fill="none" xmlns="http://www.w3.org/2000/svg">
<path d="M1.78589 30.02V28.2474C1.78589 21.3948 7.33278 15.8396 14.1752 15.8396" stroke="#FCFCFC" stroke-width="3" stroke-linecap="round" stroke-linejoin="round"/>
<path d="M26.2172 16.3953C27.3531 15.1462 29.3156 15.1462 30.4515 16.3953C31.0256 17.0267 31.8508 17.3689 32.7024 17.329C34.3876 17.2502 35.7754 18.64 35.6966 20.3277C35.6568 21.1806 35.9985 22.007 36.629 22.582C37.8762 23.7196 37.8762 25.685 36.629 26.8226C35.9985 27.3976 35.6568 28.224 35.6966 29.077C35.7754 30.7646 34.3876 32.1545 32.7024 32.0756C31.8508 32.0357 31.0256 32.378 30.4515 33.0094C29.3156 34.2585 27.3531 34.2585 26.2172 33.0094C25.643 32.378 24.8179 32.0357 23.9662 32.0756C22.2811 32.1545 20.8933 30.7646 20.9721 29.077C21.0119 28.224 20.6701 27.3976 20.0397 26.8226C18.7924 25.685 18.7924 23.7196 20.0397 22.582C20.6701 22.007 21.0119 21.1806 20.9721 20.3277C20.8933 18.64 22.2811 17.2502 23.9662 17.329C24.8179 17.3689 25.643 17.0267 26.2172 16.3953Z" stroke="#FCFCFC" stroke-width="3"/>
<path d="M25.438 24.7023L27.369 26.636L31.2305 22.7687" stroke="#FCFCFC" stroke-width="3" stroke-linecap="round" stroke-linejoin="round"/>
<path d="M14.1753 15.8396C18.0852 15.8396 21.2549 12.6651 21.2549 8.7494C21.2549 4.83359 18.0852 1.65921 14.1753 1.65921C10.2653 1.65921 7.0957 4.83359 7.0957 8.7494C7.0957 12.6651 10.2653 15.8396 14.1753 15.8396Z" stroke="#FCFCFC" stroke-width="3" stroke-linecap="round" stroke-linejoin="round"/>
</svg>
