<svg xmlns="http://www.w3.org/2000/svg" viewBox="0 0 290.15 66.82"><defs><style>.cls-1{fill:#fff;}</style></defs><g id="Capa_2" data-name="Capa 2"><g id="Capa_1-2" data-name="Capa 1"><path class="cls-1" d="M195.05,66.37a2.6,2.6,0,0,0,.74-.13,1.31,1.31,0,0,0,.51-.34,1.4,1.4,0,0,0,.34-.65,6,6,0,0,0,.09-1.22v-5.9a5.76,5.76,0,0,0-.11-1.3,1.28,1.28,0,0,0-.42-.67,1.94,1.94,0,0,0-1.15-.37v-.18h4.41c1,0,1.6,0,1.87,0a5.64,5.64,0,0,1,2.87,1,5.36,5.36,0,0,1,1.74,2.08,6.28,6.28,0,0,1,.63,2.8,6,6,0,0,1-.36,2.09,4.61,4.61,0,0,1-1,1.64A4.12,4.12,0,0,1,203,66.37a11.35,11.35,0,0,1-2,.18h-5.92Zm3.44-10.51v8a7,7,0,0,0,.08,1.19,1.62,1.62,0,0,0,.33.7,2,2,0,0,0,1.67.62,4,4,0,0,0,1.69-.32A3.28,3.28,0,0,0,203.51,65a4.92,4.92,0,0,0,.83-1.61,6.46,6.46,0,0,0,.29-1.94,6.7,6.7,0,0,0-.35-2.16,5.4,5.4,0,0,0-1-1.8A4.22,4.22,0,0,0,201.17,56a6.78,6.78,0,0,0-1.71-.18Z"/><path class="cls-1" d="M216.34,55.61l.14,2.64h-.19a3.16,3.16,0,0,0-.34-1.11,2.25,2.25,0,0,0-.7-.78,2.34,2.34,0,0,0-.89-.4,6.24,6.24,0,0,0-1.36-.11h-1.84v4.81h.48a4.3,4.3,0,0,0,1.1-.1,1.19,1.19,0,0,0,.6-.34,1.64,1.64,0,0,0,.34-.55,5.22,5.22,0,0,0,.18-.94H214l0,4.3h-.18a4.17,4.17,0,0,0-.22-1,1.81,1.81,0,0,0-.39-.64,1.43,1.43,0,0,0-.62-.37,3.36,3.36,0,0,0-1-.12h-.46v1.83a15,15,0,0,0,.06,1.6,2.71,2.71,0,0,0,.22.84,1.66,1.66,0,0,0,.83.84,3.39,3.39,0,0,0,1.47.27,4.67,4.67,0,0,0,1.61-.24,2.47,2.47,0,0,0,1.06-.76,3,3,0,0,0,.47-.79,6.74,6.74,0,0,0,.33-1.16h.18l-.1,3.19h-9.57v-.18a2.75,2.75,0,0,0,.75-.13,1.35,1.35,0,0,0,.5-.34,1.31,1.31,0,0,0,.34-.65,5.26,5.26,0,0,0,.1-1.22v-5.9a5.26,5.26,0,0,0-.1-1.22,1.31,1.31,0,0,0-.34-.65,1.21,1.21,0,0,0-.5-.34,2.75,2.75,0,0,0-.75-.13v-.18Z"/><path class="cls-1" d="M218,66.55v-.19a1.66,1.66,0,0,0,1.25-.46,1.5,1.5,0,0,0,.34-.65,6,6,0,0,0,.09-1.22v-5.9a5.54,5.54,0,0,0-.1-1.26,1.34,1.34,0,0,0-.37-.66,1.49,1.49,0,0,0-.51-.31,2.57,2.57,0,0,0-.7-.11v-.18h5.12v.18a3,3,0,0,0-.72.12,1.36,1.36,0,0,0-.5.31,1.34,1.34,0,0,0-.37.66,6.08,6.08,0,0,0-.1,1.25v4.62a15.32,15.32,0,0,0,.06,1.59,2.56,2.56,0,0,0,.22.85,1.7,1.7,0,0,0,.83.84,3.39,3.39,0,0,0,1.47.27,4.5,4.5,0,0,0,1.61-.25,2.54,2.54,0,0,0,1.07-.78,3.42,3.42,0,0,0,.46-.82,7.06,7.06,0,0,0,.33-1.2h.19l-.1,3.29Z"/><path class="cls-1" d="M245.92,55.79a2.59,2.59,0,0,0-.73.13,1.18,1.18,0,0,0-.51.33.93.93,0,0,0-.26.37,2.07,2.07,0,0,0-.13.52,9.31,9.31,0,0,0,0,1V64a6.09,6.09,0,0,0,.09,1.23,1.29,1.29,0,0,0,.35.64,1.84,1.84,0,0,0,1.24.47v.18H240.8v-.18a2.75,2.75,0,0,0,.75-.13,1.57,1.57,0,0,0,.51-.34,1.4,1.4,0,0,0,.34-.65,6,6,0,0,0,.09-1.22V56.87l-4.13,9.68h-.17L234.09,57v7a5.91,5.91,0,0,0,.09,1.22,1.36,1.36,0,0,0,.85,1,2.74,2.74,0,0,0,.74.13v.18h-3.69v-.18a2.74,2.74,0,0,0,.74-.13,1.31,1.31,0,0,0,.51-.34,1.5,1.5,0,0,0,.34-.65,6,6,0,0,0,.09-1.22v-5.9c0-.25,0-.48,0-.7a2.1,2.1,0,0,0-.18-.87A1.29,1.29,0,0,0,233,56a2.27,2.27,0,0,0-.92-.21v-.18h3.48L239,64.18l3.6-8.57h3.29Z"/><path class="cls-1" d="M257.88,66.55h-5.27v-.18a2.6,2.6,0,0,0,1-.24,1,1,0,0,0,.5-.87,2.48,2.48,0,0,0-.22-.88l-.14-.34L253,62.15h-3.53L249,63.26l-.21.49a4,4,0,0,0-.36,1.39,1.15,1.15,0,0,0,.14.55,1,1,0,0,0,.35.42,1.61,1.61,0,0,0,.8.26v.18h-3.59v-.18a1.77,1.77,0,0,0,.75-.21,2.12,2.12,0,0,0,.62-.59,4.65,4.65,0,0,0,.51-.85c.16-.34.37-.86.64-1.55l2.94-7.56h.45L255.56,64a12.31,12.31,0,0,0,.63,1.37,1.86,1.86,0,0,0,.5.61,1.67,1.67,0,0,0,.44.23,5.08,5.08,0,0,0,.75.13Zm-5-4.73-1.68-4.15-1.59,4.15Z"/><path class="cls-1" d="M263.11,55.61v.18a2.74,2.74,0,0,0-.74.13,1.31,1.31,0,0,0-.51.34,1.39,1.39,0,0,0-.35.67,8.5,8.5,0,0,0-.08,1.38v4.54a11.72,11.72,0,0,0,.08,1.6,2.63,2.63,0,0,0,.34.91,2.41,2.41,0,0,0,1,.92,3.12,3.12,0,0,0,1.42.28,5,5,0,0,0,1.59-.25,3.47,3.47,0,0,0,1.26-.7,1.85,1.85,0,0,0,.46-.61,2.59,2.59,0,0,0,.2-.84c0-.22,0-.73,0-1.55V58.13a5.91,5.91,0,0,0-.09-1.22,1.35,1.35,0,0,0-.34-.65,1.31,1.31,0,0,0-.51-.34,2.74,2.74,0,0,0-.74-.13v-.18h3.7v.18a2.75,2.75,0,0,0-.75.13,1.31,1.31,0,0,0-.51.34,1.4,1.4,0,0,0-.34.65,6,6,0,0,0-.09,1.22v5a6.07,6.07,0,0,1-.17,1.66,2.11,2.11,0,0,1-.69,1,6.18,6.18,0,0,1-6.68.06,2.49,2.49,0,0,1-.84-1.6,11.62,11.62,0,0,1-.05-1.28V58.13a6.94,6.94,0,0,0-.08-1.22,1.28,1.28,0,0,0-.35-.65,1.21,1.21,0,0,0-.5-.34,2.75,2.75,0,0,0-.75-.13v-.18Z"/><path class="cls-1" d="M270.47,66.55v-.19a1.65,1.65,0,0,0,1.25-.46,1.4,1.4,0,0,0,.34-.65,6,6,0,0,0,.09-1.22v-5.9a5.54,5.54,0,0,0-.1-1.26,1.34,1.34,0,0,0-.37-.66,1.55,1.55,0,0,0-.5-.31,2.65,2.65,0,0,0-.71-.11v-.18h5.12v.18a3.16,3.16,0,0,0-.72.12,1.45,1.45,0,0,0-.5.31,1.34,1.34,0,0,0-.37.66,6.25,6.25,0,0,0-.09,1.25v4.62c0,.71,0,1.24,0,1.59a2.56,2.56,0,0,0,.22.85A1.74,1.74,0,0,0,275,66a3.39,3.39,0,0,0,1.47.27,4.46,4.46,0,0,0,1.61-.25,2.54,2.54,0,0,0,1.07-.78,3.11,3.11,0,0,0,.46-.82,7.06,7.06,0,0,0,.33-1.2h.19l-.1,3.29Z"/><path class="cls-1" d="M289.1,55.61l.14,2.64h-.19a3.38,3.38,0,0,0-.34-1.11A2.44,2.44,0,0,0,287.12,56a6.3,6.3,0,0,0-1.36-.11h-1.84v4.81h.48a4.35,4.35,0,0,0,1.1-.1,1.19,1.19,0,0,0,.6-.34,1.64,1.64,0,0,0,.34-.55,5.22,5.22,0,0,0,.18-.94h.18l0,4.3h-.19a4.22,4.22,0,0,0-.21-1,1.81,1.81,0,0,0-.39-.64,1.43,1.43,0,0,0-.62-.37,3.4,3.4,0,0,0-1-.12h-.46v1.83a15,15,0,0,0,.06,1.6,2.72,2.72,0,0,0,.21.84A1.74,1.74,0,0,0,285,66a3.46,3.46,0,0,0,1.48.27,4.71,4.71,0,0,0,1.61-.24,2.47,2.47,0,0,0,1.06-.76,2.93,2.93,0,0,0,.46-.79,6.64,6.64,0,0,0,.34-1.16h.18l-.1,3.19h-9.57v-.18a2.67,2.67,0,0,0,.74-.13,1.36,1.36,0,0,0,.85-1,5.89,5.89,0,0,0,.1-1.22v-5.9a5.89,5.89,0,0,0-.1-1.22,1.31,1.31,0,0,0-.34-.65,1.21,1.21,0,0,0-.5-.34,2.75,2.75,0,0,0-.75-.13v-.18Z"/><path class="cls-1" d="M128.74,51.7C108.85,77,75.81,66.47,68.49,46.27l7.77-4.8c13.3,16.62,27.55,19.77,39.63,9a22.56,22.56,0,0,0,.77-33.26c-9.73-9.55-25.73-9.2-34.51,1.1L114.1,36.22l-3.59,6.5L68.78,20c7.11-19.42,40-30.11,59.93-4.8C136.87,4.49,147.5-.74,161.06.31a33.74,33.74,0,0,1,23.87,13L177,18.89C160.88,7.65,147.45,8.06,138.42,20c-7.53,10-5.54,23.67,4.58,31.53,11.52,8.94,25,6,36.86-8.18L187,50C178.37,68,146.46,75.48,128.74,51.7Z"/><path class="cls-1" d="M61.35,13.42,53.24,19c-14.39-11.4-28.67-11.24-37.86.3a22.42,22.42,0,0,0,3.63,32c11.81,9.33,25.76,6.45,37.21-7.94L63.31,50c-5.65,11.93-21,18.84-35.77,16.35C13.94,64,1.88,51.75.29,38.6-1.64,22.73,6.23,8.8,20.55,2.73S51.13.84,61.35,13.42Z"/></g></g></svg>